<svg xmlns="http://www.w3.org/2000/svg">
    <symbol id="facebook" viewBox="0 0 14 25">
            <path d="M13.0125 14.0625L13.7069 9.53809H9.36547V6.60205C9.36547 5.36426 9.97193 4.15771 11.9163 4.15771H13.89V0.305664C13.89 0.305664 12.0989 0 10.3865 0C6.8112 0 4.47423 2.16699 4.47423 6.08984V9.53809H0.5V14.0625H4.47423V25H9.36547V14.0625H13.0125Z" fill="#000"/>
    </symbol>

    <symbol id="instagram" viewBox="0 0 32 32">
            <path d="M16.0036 7.7956C11.4632 7.7956 7.801 11.4587 7.801 16C7.801 20.5413 11.4632 24.2044 16.0036 24.2044C20.5439 24.2044 24.2061 20.5413 24.2061 16C24.2061 11.4587 20.5439 7.7956 16.0036 7.7956ZM16.0036 21.3339C13.0695 21.3339 10.6708 18.9419 10.6708 16C10.6708 13.0581 13.0624 10.6661 16.0036 10.6661C18.9448 10.6661 21.3363 13.0581 21.3363 16C21.3363 18.9419 18.9376 21.3339 16.0036 21.3339ZM26.4549 7.46C26.4549 8.52393 25.5982 9.37365 24.5417 9.37365C23.478 9.37365 22.6284 8.51679 22.6284 7.46C22.6284 6.40321 23.4851 5.54636 24.5417 5.54636C25.5982 5.54636 26.4549 6.40321 26.4549 7.46ZM31.8876 9.40221C31.7662 6.83878 31.1808 4.56811 29.3033 2.69731C27.4329 0.826509 25.1627 0.240991 22.5999 0.112462C19.9585 -0.0374874 12.0415 -0.0374874 9.40011 0.112462C6.8444 0.23385 4.57423 0.819368 2.69671 2.69017C0.819186 4.56097 0.240937 6.83164 0.112437 9.39507C-0.0374791 12.037 -0.0374791 19.9558 0.112437 22.5978C0.233798 25.1612 0.819186 27.4319 2.69671 29.3027C4.57423 31.1735 6.83726 31.759 9.40011 31.8875C12.0415 32.0375 19.9585 32.0375 22.5999 31.8875C25.1627 31.7661 27.4329 31.1806 29.3033 29.3027C31.1737 27.4319 31.7591 25.1612 31.8876 22.5978C32.0375 19.9558 32.0375 12.0442 31.8876 9.40221ZM28.4752 25.4326C27.9184 26.8321 26.8404 27.9103 25.434 28.4744C23.3281 29.3098 18.3308 29.117 16.0036 29.117C13.6763 29.117 8.67195 29.3027 6.57312 28.4744C5.1739 27.9174 4.09593 26.8392 3.53196 25.4326C2.69671 23.3261 2.88946 18.3278 2.88946 16C2.88946 13.6722 2.70385 8.66674 3.53196 6.56744C4.08879 5.16791 5.16676 4.0897 6.57312 3.52561C8.67909 2.69017 13.6763 2.88296 16.0036 2.88296C18.3308 2.88296 23.3352 2.69731 25.434 3.52561C26.8332 4.08256 27.9112 5.16077 28.4752 6.56744C29.3104 8.67388 29.1177 13.6722 29.1177 16C29.1177 18.3278 29.3104 23.3333 28.4752 25.4326Z" fill="#000"/>
    </symbol>

    <symbol id="linkdn" viewBox="0 0 32 32">
            <path d="M29.7143 0H2.27857C1.02143 0 0 1.03571 0 2.30714V29.6929C0 30.9643 1.02143 32 2.27857 32H29.7143C30.9714 32 32 30.9643 32 29.6929V2.30714C32 1.03571 30.9714 0 29.7143 0ZM9.67143 27.4286H4.92857V12.1571H9.67857V27.4286H9.67143ZM7.3 10.0714C5.77857 10.0714 4.55 8.83571 4.55 7.32143C4.55 5.80714 5.77857 4.57143 7.3 4.57143C8.81429 4.57143 10.05 5.80714 10.05 7.32143C10.05 8.84286 8.82143 10.0714 7.3 10.0714ZM27.45 27.4286H22.7071V20C22.7071 18.2286 22.6714 15.95 20.2429 15.95C17.7714 15.95 17.3929 17.8786 17.3929 19.8714V27.4286H12.65V12.1571H17.2V14.2429H17.2643C17.9 13.0429 19.45 11.7786 21.7571 11.7786C26.5571 11.7786 27.45 14.9429 27.45 19.0571V27.4286Z" fill="#000"/>
    </symbol>

    <symbol id="youtube" viewBox="0 0 24 18">
            <path d="M23.2048 3.10829C22.9322 2.08161 22.1291 1.27303 21.1094 0.998624C19.2612 0.5 11.85 0.5 11.85 0.5C11.85 0.5 4.43884 0.5 2.59056 0.998624C1.57089 1.27307 0.767804 2.08161 0.495234 3.10829C0 4.96921 0 8.85184 0 8.85184C0 8.85184 0 12.7345 0.495234 14.5954C0.767804 15.6221 1.57089 16.397 2.59056 16.6714C4.43884 17.17 11.85 17.17 11.85 17.17C11.85 17.17 19.2612 17.17 21.1094 16.6714C22.1291 16.397 22.9322 15.6221 23.2048 14.5954C23.7 12.7345 23.7 8.85184 23.7 8.85184C23.7 8.85184 23.7 4.96921 23.2048 3.10829ZM9.42612 12.377V5.3267L15.6204 8.85193L9.42612 12.377Z" fill="#000"/>
    </symbol>

    <symbol id="burger" viewBox="0 0 32 32">
        <path d="M30.8571 27.4286H1.14286C0.839753 27.4286 0.549062 27.549 0.334735 27.7633C0.120408 27.9776 0 28.2683 0 28.5714L0 30.8571C0 31.1602 0.120408 31.4509 0.334735 31.6653C0.549062 31.8796 0.839753 32 1.14286 32H30.8571C31.1602 32 31.4509 31.8796 31.6653 31.6653C31.8796 31.4509 32 31.1602 32 30.8571V28.5714C32 28.2683 31.8796 27.9776 31.6653 27.7633C31.4509 27.549 31.1602 27.4286 30.8571 27.4286ZM30.8571 18.2857H1.14286C0.839753 18.2857 0.549062 18.4061 0.334735 18.6204C0.120408 18.8348 0 19.1255 0 19.4286L0 21.7143C0 22.0174 0.120408 22.3081 0.334735 22.5224C0.549062 22.7367 0.839753 22.8571 1.14286 22.8571H30.8571C31.1602 22.8571 31.4509 22.7367 31.6653 22.5224C31.8796 22.3081 32 22.0174 32 21.7143V19.4286C32 19.1255 31.8796 18.8348 31.6653 18.6204C31.4509 18.4061 31.1602 18.2857 30.8571 18.2857ZM30.8571 9.14286H1.14286C0.839753 9.14286 0.549062 9.26327 0.334735 9.47759C0.120408 9.69192 0 9.98261 0 10.2857L0 12.5714C0 12.8745 0.120408 13.1652 0.334735 13.3796C0.549062 13.5939 0.839753 13.7143 1.14286 13.7143H30.8571C31.1602 13.7143 31.4509 13.5939 31.6653 13.3796C31.8796 13.1652 32 12.8745 32 12.5714V10.2857C32 9.98261 31.8796 9.69192 31.6653 9.47759C31.4509 9.26327 31.1602 9.14286 30.8571 9.14286ZM30.8571 0H1.14286C0.839753 0 0.549062 0.120408 0.334735 0.334735C0.120408 0.549062 0 0.839753 0 1.14286L0 3.42857C0 3.73168 0.120408 4.02237 0.334735 4.23669C0.549062 4.45102 0.839753 4.57143 1.14286 4.57143H30.8571C31.1602 4.57143 31.4509 4.45102 31.6653 4.23669C31.8796 4.02237 32 3.73168 32 3.42857V1.14286C32 0.839753 31.8796 0.549062 31.6653 0.334735C31.4509 0.120408 31.1602 0 30.8571 0Z" fill="#FFA500"/>
    </symbol>

    <symbol id="logo" fill="#000000" viewBox="0 0 307.758 307.758">
	<path d="M190.991,34.397v-0.231L159.715,2.449c-1.542-1.563-3.646-2.443-5.841-2.443s-4.299,0.88-5.841,2.443l-31.279,31.717v0.236   c11.738-3.652,24.207-5.625,37.131-5.625C166.798,28.777,179.264,30.745,190.991,34.397z"/>
	<path d="M116.754,273.351v0.241l31.279,31.717c1.541,1.563,3.645,2.443,5.841,2.443s4.299-0.881,5.841-2.443l31.275-31.717v-0.236   c-11.727,3.647-24.192,5.619-37.105,5.619C140.962,278.975,128.492,277.002,116.754,273.351z"/>
	<path d="M43.212,95.715c11.798-22.354,30.145-40.7,52.503-52.498l-0.235-0.237l-44.551-0.312c-2.195-0.015-4.305,0.851-5.857,2.402   c-1.552,1.553-2.417,3.662-2.402,5.857l0.307,44.551L43.212,95.715z"/>
	<path d="M264.538,212.037c-11.799,22.359-30.141,40.705-52.5,52.504l0.237,0.231l44.552,0.308c2.195,0.016,4.305-0.851,5.857-2.402   c1.552-1.553,2.418-3.662,2.402-5.857l-0.308-44.541L264.538,212.037z"/>
	<path d="M305.314,148.018l-31.71-31.265h-0.252c3.651,11.731,5.624,24.197,5.624,37.116c0,12.922-1.972,25.388-5.624,37.125h0.236   l31.728-31.295c1.563-1.542,2.443-3.645,2.442-5.84C307.757,151.663,306.877,149.559,305.314,148.018z"/>
	<path d="M34.172,116.748L2.444,148.023C0.88,149.564,0,151.668,0,153.863c-0.001,2.195,0.879,4.301,2.443,5.842l31.729,31.289   h0.232c-3.651-11.737-5.624-24.203-5.624-37.125c0-12.919,1.973-25.391,5.624-37.121H34.172z"/>
	<path d="M256.827,42.653l-44.552,0.312l-0.24,0.241c22.357,11.798,40.705,30.144,52.503,52.504l0.241-0.241l0.308-44.557   c0.015-2.195-0.85-4.305-2.403-5.858C261.131,43.503,259.022,42.638,256.827,42.653z"/>
	<path d="M43.212,212.027l-0.236,0.236l-0.316,44.554c-0.016,2.195,0.85,4.306,2.402,5.858c1.553,1.553,3.663,2.418,5.858,2.402   l44.559-0.315l0.23-0.232C73.357,252.733,55.011,234.381,43.212,212.027z"/>
	<path d="M170.163,162.786c0.187-0.618-0.104-1.28-0.684-1.563c-0.581-0.282-1.28-0.102-1.651,0.428   c-16.072,22.908-49.824,42.075-61.22,47.236c-9.455,4.281-16.975,9.453-22.908,14.683c17.918,18.041,42.741,29.213,70.176,29.213   c54.624,0,98.906-44.281,98.906-98.904c0-54.623-44.282-98.906-98.906-98.906c-54.623,0-98.905,44.283-98.905,98.906   c0,24.104,8.626,46.189,22.954,63.348c5.618-6.183,13.431-12.439,24.319-18.011c0.297-0.148,0.569-0.219,0.857-0.347   c-12.756-22.494-5.535-55.926,23.421-64.013c36.061-7.489,51.333-25.159,57.788-38.187c0.906-1.83,2.864-2.896,4.893-2.666   c2.03,0.229,3.699,1.703,4.177,3.688c5.724,23.792,13.889,67.331,3.674,89.774c-10.48,23.038-29.7,35.094-50.017,35.094   c-7.208,0-14.549-1.588-21.693-4.669C130.179,214.868,160.842,193.662,170.163,162.786z"/>
    </symbol>
</svg>